<?xml version="1.0" encoding="utf-8"?>
<!-- Generator: Adobe Illustrator 19.1.0, SVG Export Plug-In . SVG Version: 6.00 Build 0)  -->
<svg version="1.1" id="Layer_1" xmlns="http://www.w3.org/2000/svg" xmlns:xlink="http://www.w3.org/1999/xlink" x="0px" y="0px"
	 viewBox="-289 381 32 32" style="enable-background:new -289 381 32 32;" xml:space="preserve">
<style type="text/css">
	.st0{fill:#777777;}
</style>
<path class="st0" d="M-284.8,382h23.8c1.7,0,3.2,0.9,3.2,2.1v15.8c0,1.2-1.4,2.1-3.2,2.1h-23.8c-1.7,0-3.2-0.9-3.2-2.1v-15.8
	C-288,382.9-286.6,382-284.8,382z"/>
<path class="st0" d="M-285.9,403h5.2c1.1,0,2.1,0.9,2.1,2v5c0,1.1-0.9,2-2.1,2h-5.2c-1.2,0-2.1-0.9-2.1-2v-5
	C-288,403.9-287.1,403-285.9,403z"/>
<path class="st0" d="M-275.6,403h5.2c1.1,0,2.1,0.9,2.1,2v5c0,1.1-0.9,2-2.1,2h-5.2c-1.1,0-2.1-0.9-2.1-2v-5
	C-277.7,403.9-276.7,403-275.6,403z"/>
<path class="st0" d="M-265.2,403h5.2c1.1,0,2.1,0.9,2.1,2v5c0,1.1-0.9,2-2.1,2h-5.2c-1.1,0-2.1-0.9-2.1-2v-5
	C-267.3,403.9-266.4,403-265.2,403z"/>
</svg>
