<?xml version="1.0" encoding="utf-8"?>
<!-- Generator: Adobe Illustrator 19.1.0, SVG Export Plug-In . SVG Version: 6.00 Build 0)  -->
<svg version="1.1" id="Layer_1" xmlns="http://www.w3.org/2000/svg" xmlns:xlink="http://www.w3.org/1999/xlink" x="0px" y="0px"
	 viewBox="-289 381 32 32" style="enable-background:new -289 381 32 32;" xml:space="preserve">
<style type="text/css">
	.st0{fill:#777777;}
</style>
<path class="st0" d="M-284.8,382.5h8c1.8,0,3.2,1.4,3.2,3.1v7.8c0,1.7-1.4,3.1-3.2,3.1h-8c-1.8,0-3.2-1.4-3.2-3.1v-7.8
	C-288,383.9-286.6,382.5-284.8,382.5z"/>
<path class="st0" d="M-269.3,382.5h8c1.8,0,3.2,1.4,3.2,3.1v7.8c0,1.7-1.4,3.1-3.2,3.1h-8c-1.8,0-3.2-1.4-3.2-3.1v-7.8
	C-272.6,383.9-271.1,382.5-269.3,382.5z"/>
<path class="st0" d="M-284.8,398h8c1.8,0,3.2,1.4,3.2,3.1v7.8c0,1.7-1.4,3.1-3.2,3.1h-8c-1.8,0-3.2-1.4-3.2-3.1v-7.8
	C-288,399.4-286.6,398-284.8,398z"/>
<path class="st0" d="M-269.3,398h8c1.8,0,3.2,1.4,3.2,3.1v7.8c0,1.7-1.4,3.1-3.2,3.1h-8c-1.8,0-3.2-1.4-3.2-3.1v-7.8
	C-272.5,399.4-271.1,398-269.3,398z"/>
</svg>
